# xmcd
#
# Track frame offsets:
#	182
#	19320
#	35577
#	51765
#	67942
#	81460
#	98690
#	122800
#	140797
#	157597
#	174902
#
# Disc length: 2548 seconds
# Revision: 0
# Processed by: cddbd v1.5.2PL0 Copyright (c) Steve Scherf et al.
# Submitted via: dBpowerAMP V12.0
#
DISCID=8b09f20b
DTITLE=Iva Zanicchi - En Castellano
DYEAR=1993
DGENRE=Blues
TTITLE0=Aparte del Hecho
TTITLE1=Viviré
TTITLE2=La Valija
TTITLE3=Es
TTITLE4=Finalmente Nosotros
TTITLE5=Querido Pedro
TTITLE6=Hotel Motel
TTITLE7=Te Quiero Pero No Te Amo
TTITLE8=Nuestra Música
TTITLE9=Espera
TTITLE10=Dímelo
EXTD=
EXTT0=
EXTT1=
EXTT2=
EXTT3=
EXTT4=
EXTT5=
EXTT6=
EXTT7=
EXTT8=
EXTT9=
EXTT10=
PLAYORDER=
